<?xml version="1.0" encoding="iso-8859-1"?>
<!-- Uploaded to: SVG Repo, www.svgrepo.com, Generator: SVG Repo Mixer Tools -->
<svg fill="#000000" height="800px" width="800px" version="1.1" id="Layer_1" xmlns="http://www.w3.org/2000/svg" xmlns:xlink="http://www.w3.org/1999/xlink" 
	 viewBox="0 0 512 512" xml:space="preserve">
<g>
	<g>
		<path d="M307.67,265.92L471.81,86.14c3.74-4.09,3.54-10.41-0.445-14.26C423.4,25.53,360.235,0,293.51,0
			c-141.16,0-256,114.84-256,256c0,141.16,114.84,256,256,256c65.57,0,127.935-24.76,175.61-69.72c2.015-1.9,3.174-4.53,3.215-7.3
			c0.04-2.77-1.04-5.43-3-7.39L307.67,265.92z M293.51,491.52C163.645,491.52,57.99,385.87,57.99,256
			c0-129.87,105.655-235.52,235.52-235.52c58.06,0,113.184,21.01,156.325,59.36L285.95,259.34c-3.695,4.04-3.55,10.27,0.319,14.14
			l160.966,160.97C404.485,471.33,350.305,491.52,293.51,491.52z"/>
	</g>
</g>
<g>
	<g>
		<path d="M221.83,92.16c-22.585,0-40.96,18.37-40.96,40.96c0,22.59,18.375,40.96,40.96,40.96c22.585,0,40.96-18.37,40.96-40.96
			C262.79,110.53,244.415,92.16,221.83,92.16z M221.83,153.6c-11.296,0-20.48-9.19-20.48-20.48c0-11.29,9.184-20.48,20.48-20.48
			c11.295,0,20.48,9.19,20.48,20.48C242.31,144.41,233.125,153.6,221.83,153.6z"/>
	</g>
</g>
</svg>